<?xml version="1.0" standalone="no"?>
<!DOCTYPE svg PUBLIC "-//W3C//DTD SVG 1.1//EN" "http://www.w3.org/Graphics/SVG/1.1/DTD/svg11.dtd" >
<svg xmlns="http://www.w3.org/2000/svg" xmlns:xlink="http://www.w3.org/1999/xlink" version="1.1">
<metadata>
Created by FontForge 20170924 at Thu Dec  2 18:01:16 2021
 By www
2021 Iconian Fonts - www.iconian.com
</metadata>
<defs>
<font id="SpecialAgentLaser" horiz-adv-x="359" >
  <font-face 
    font-family="Special Agent Laser"
    font-weight="400"
    font-stretch="normal"
    units-per-em="1000"
    panose-1="2 0 0 0 0 0 0 0 0 0"
    ascent="800"
    descent="-200"
    x-height="712"
    cap-height="712"
    bbox="-47 -101 669 861"
    underline-thickness="50"
    underline-position="-125"
    unicode-range="U+0020-2122"
  />
    <missing-glyph />
    <glyph glyph-name="FL0020h" unicode=" " horiz-adv-x="162" 
 />
    <glyph glyph-name="FL0021h" unicode="!" horiz-adv-x="178" 
d="M20 184h138v373h-138v-373zM158 712h-138v-125h138v125zM158 0v125h-138v-125h138z" />
    <glyph glyph-name="FL0022h" unicode="&#x22;" horiz-adv-x="335" 
d="M20 712v-125h130q4 15 4 44v81h-134zM181 712v-125h130q4 15 4 44v81h-134zM303 557h-122v-51q48 0 78 9.5t44 41.5zM142 557h-122v-51q48 0 78 9.5t44 41.5z" />
    <glyph glyph-name="FL0023h" unicode="#" horiz-adv-x="437" 
d="M236 527h-37v30h-138v-30h-41v-125h41v-29h-41v-125h41v-248h138v248h37v-248h138v248h43v125h-43v29h43v125h-43v30h-138v-30zM236 587h138v125h-138v-125zM61 587h138v125h-138v-125zM236 402v-29h-37v29h37z" />
    <glyph glyph-name="FL0024h" unicode="$" 
d="M158 278h-138v-106q0 -66 22.5 -91.5t67.5 -30.5v-89h138v89q22 3 39.5 10t28.5 20.5t17 35.5t6 56v51q0 32 -2 62t-7 39q-7 27 -24 46.5t-39 35.5t-47.5 30.5t-49.5 31.5q-5 4 -8.5 14.5t-3.5 23.5v12q0 20 21 22q22 -1 22 -22v-37h138v59v8q0 7 -1 9h-318v-17v-58
q0 -23 1 -40t9 -33q11 -24 30 -38.5t41 -26.5t45 -24.5t42 -31.5q10 -18 11.5 -37.5t1.5 -31.5v-25q0 -22 -21 -22q-22 0 -22 22v84zM24 587h311q-8 38 -30 54t-57 21v92h-138v-92q-37 -5 -58 -21t-28 -54z" />
    <glyph glyph-name="FL0025h" unicode="%" horiz-adv-x="472" 
d="M87 0h117v208q0 12 1.5 23t11.5 29q38 38 80.5 73t77.5 75q7 8 8.5 25.5t1.5 40.5v83h-117v-59q0 -13 -3.5 -27t-8.5 -18q-20 -18 -42.5 -39.5t-44 -42.5t-40 -41t-29.5 -35q-13 -16 -13 -83v-212zM289 255v-225q0 -23 5.5 -36t16 -19.5t25.5 -8t35 -1.5t35 1.5t25.5 8
t15.5 19.5t5 36v225q0 23 -5 36t-15.5 20t-25.5 8.5t-35 1.5t-35 -1.5t-25.5 -8.5t-16 -20t-5.5 -36zM102 461q-6 0 -6 6v90h-76v-101q0 -23 5.5 -36t16 -19.5t25.5 -8t35 -1.5t35 1.5t25.5 8t15.5 19.5t5 36v101h-75v-90q0 -6 -6 -6zM20 681v-94h76v83q0 6 5 6q7 0 7 -6
v-83h75v94q0 23 -5 36t-15.5 20t-25.5 8.5t-35 1.5t-35 -1.5t-25.5 -8.5t-16 -20t-5.5 -36zM385 712h-117v-125h117v125zM377 244v-203q0 -6 -6 -6t-6 6v203q0 6 5 6q7 0 7 -6z" />
    <glyph glyph-name="FL0026h" unicode="&#x26;" horiz-adv-x="402" 
d="M382 450h-206q-18 1 -18 22v85h-138v-70q0 -43 13 -66t35 -34q-23 -11 -35.5 -35.5t-12.5 -72.5v-154q0 -44 10 -69t30 -37.5t49.5 -15.5t69.5 -3h160v325h43v125zM20 587h319q0 43 -10 68t-29.5 37.5t-49.5 16t-69 3.5h-2q-40 0 -69.5 -3t-49.5 -16t-30 -38t-10 -68z
M158 303q0 21 22 22h21v-200h-21q-22 0 -22 22v156zM339 529v28h-138v-28h138z" />
    <glyph glyph-name="FL0027h" unicode="'" horiz-adv-x="176" 
d="M20 712v-125h132q4 15 4 44v81h-136zM144 557h-124v-51q48 0 79 9.5t45 41.5z" />
    <glyph glyph-name="FL0028h" unicode="(" horiz-adv-x="231" 
d="M158 147v410h-138v-432q0 -44 10 -69t30 -37.5t50 -15.5t70 -3h31v125h-31q-22 0 -22 22zM180 712q-41 0 -71 -3t-49.5 -16t-29.5 -38t-10 -68h157h2h32v125h-31z" />
    <glyph glyph-name="FL0029h" unicode=")" horiz-adv-x="231" 
d="M211 125v432h-138v-410q0 -22 -22 -22h-31v-125h31q40 0 70 3t50 15.5t30 37.5t10 69zM20 712v-125h191q0 43 -10 68t-29.5 38t-50 16t-70.5 3h-31z" />
    <glyph glyph-name="asterisk" unicode="*" horiz-adv-x="196" 
d="M123 596l41 42l-24 30l36 6l-17 59l-36 -16l8 39h-67l6 -39l-31 17l-19 -60l37 -6l-27 -25l47 -45l18 36z" />
    <glyph glyph-name="FL002Bh" unicode="+" horiz-adv-x="262" 
d="M194 276v49h48v125h-48v48h-125v-48h-49v-125h49v-49h125z" />
    <glyph glyph-name="FL003Bh" unicode="," horiz-adv-x="178" 
d="M81 -70h77v195h-138v-125h61v-70z" />
    <glyph glyph-name="FL002Dh" unicode="-" horiz-adv-x="189" 
d="M169 450h-149v-125h149v125z" />
    <glyph glyph-name="FL002Eh" unicode="." horiz-adv-x="178" 
d="M158 0v125h-138v-125h138z" />
    <glyph glyph-name="FL002Fh" unicode="/" 
d="M158 0v219q0 12 1.5 31.5t11.5 37.5q19 19 41 31t43 23.5t40.5 26.5t33.5 39q8 12 9 29t1 38v82h-138v-51q0 -13 -3.5 -23.5t-8.5 -14.5q-24 -17 -49.5 -31.5t-47.5 -30.5t-39 -35.5t-24 -46.5q-5 -9 -7 -39t-2 -62v-223h138zM201 587h138v125h-138v-125z" />
    <glyph glyph-name="FL0030h" unicode="0" 
d="M20 125q0 -44 10 -69t30 -37.5t50 -15.5t70 -3t69.5 3t49.5 15.5t30 37.5t10 69v432h-138v-87q-1 -11 -4 -20.5t-8 -12.5l-31 -26v146h-138v-432zM20 587h157h2h1h159q0 43 -10 68t-30 38t-49.5 16t-69.5 3q-41 0 -71 -3t-49.5 -16t-29.5 -38t-10 -68zM201 147
q0 -21 -21 -22q-20 1 -22 19v106q1 11 4 20.5t8 12.5l31 26v-162z" />
    <glyph glyph-name="FL0031h" unicode="1" horiz-adv-x="248" 
d="M90 0h138v557h-138v-557zM20 587h208v125h-208v-125z" />
    <glyph glyph-name="FL0033h" unicode="2" 
d="M201 125h-43v94q0 12 1.5 31.5t11.5 37.5q19 19 40.5 32t42.5 25.5t40.5 27.5t34.5 38q7 11 8.5 27.5t1.5 37.5v81h-138v-51q0 -13 -3.5 -23.5t-8.5 -14.5q-24 -17 -49.5 -31.5t-47.5 -30.5t-39 -35.5t-24 -46.5q-5 -9 -7 -39t-2 -62v-223h319v278h-138v-153zM179 712
q-40 0 -69.5 -3t-49.5 -16t-30 -38t-10 -68h319q0 43 -10 68t-29.5 38t-50 16t-70.5 3zM158 481v76h-138v-76h138z" />
    <glyph glyph-name="FL0036h" unicode="3" horiz-adv-x="272" 
d="M114 303v-156q0 -22 -21 -22h-73v-125h73q40 0 69.5 3t49.5 15.5t30 37.5t10 69v154q0 48 -12.5 72.5t-35.5 35.5q22 11 35 34t13 66v70h-138v-85q0 -21 -18 -22h-76v-125h72q22 -1 22 -22zM93 712h-73v-125h232q0 43 -10 68t-30 38t-49.5 16t-69.5 3z" />
    <glyph glyph-name="FL0034h" unicode="4" 
d="M158 280v277h-138v-299q0 -44 10 -69t30 -37.5t49.5 -15.5t69.5 -3h22v-133h138v557h-138v-299h-22q-21 0 -21 22zM158 712h-138v-125h138v125zM339 712h-138v-125h138v125z" />
    <glyph glyph-name="FL0035h" unicode="5" 
d="M158 147v131h-138v-153q0 -44 10 -69t30 -37.5t50 -15.5t70 -3t69.5 3t49.5 15.5t30 37.5t10 69v98q0 32 -2 62t-7 39q-6 25 -23 44.5t-39.5 36t-48 31.5t-49.5 32q-5 4 -8.5 14.5t-3.5 23.5v51h-138v-74q0 -23 2 -42t8 -30q13 -23 32.5 -38t41 -27.5t43.5 -25.5t41 -32
q10 -18 11.5 -37.5t1.5 -31.5v-72q0 -22 -21 -22q-22 0 -22 22zM339 587v125h-319v-125h319zM339 481v76h-138v-76h138z" />
    <glyph glyph-name="FL003Ah" unicode="6" 
d="M180 0q40 0 69.5 3t49.5 15.5t30 37.5t10 69v178q0 44 -10 69t-30 37.5t-50 15.5t-70 3h-21v129h-138v-432q0 -44 10 -69t30 -37.5t50 -15.5t70 -3zM180 712q-41 0 -71 -3t-49.5 -16t-29.5 -38t-10 -68h157h2h2h158q0 43 -10 68t-30 38t-49.5 16t-69.5 3zM158 303h24
q18 -1 19 -19v-141q-2 -18 -21 -18q-22 0 -22 22v156zM339 507v50h-138v-50h138z" />
    <glyph glyph-name="FL0037h" unicode="7" horiz-adv-x="360" 
d="M158 0v219q0 12 1.5 31.5t11.5 37.5q19 19 41 31t43.5 23.5t40.5 26t33 39.5q8 14 9 32.5t1 41.5v75h-138v-51q0 -13 -3.5 -23.5t-8.5 -14.5q-24 -17 -49.5 -31.5t-47.5 -30.5t-39 -35.5t-24 -46.5q-5 -9 -7 -39t-2 -62v-223h138zM339 587v125h-319v-125h319zM158 482v75
h-138v-75h138z" />
    <glyph glyph-name="FL0038h" unicode="8" 
d="M339 125v154q0 48 -12.5 72.5t-35.5 35.5q22 11 35 34t13 66v70h-138v-85q0 -11 -4 -16t-18 -6q-9 1 -15 6t-6 16v85h-138v-70q0 -43 13 -66t35 -34q-23 -11 -35.5 -35.5t-12.5 -72.5v-154q0 -44 10 -69t30 -37.5t49.5 -15.5t69.5 -3h9q37 0 65.5 3.5t47.5 16t28.5 37.5
t9.5 68zM180 712q-40 0 -70 -3t-50 -16t-30 -38t-10 -68h159h1h159q0 43 -10 68t-29.5 37.5t-49.5 16t-70 3.5zM158 303q0 21 22 22q21 -3 21 -22v-156q0 -22 -21 -22q-22 0 -22 22v156z" />
    <glyph glyph-name="FL0039h" unicode="9" 
d="M339 0v557h-138v-299h-22q-21 0 -21 22v277h-138v-299q0 -44 10 -69t30 -37.5t49.5 -15.5t69.5 -3h22v-133h138zM20 587h319v125h-160q-40 0 -69.5 -3t-49.5 -16t-30 -38t-10 -68z" />
    <glyph glyph-name="FL003Ch" unicode=":" horiz-adv-x="178" 
d="M158 0v125h-138v-125h138zM158 213v125h-138v-125h138z" />
    <glyph glyph-name="FL003Dh" unicode=";" horiz-adv-x="178" 
d="M81 0v-70h77v195h-138v-125h61zM158 213v125h-138v-125h138z" />
    <glyph glyph-name="FL0143h" unicode="&#x3c;" horiz-adv-x="152" 
d="M132 252v117l-47 18l47 19v117l-112 -44v-183z" />
    <glyph glyph-name="FL0BAFh" unicode="=" horiz-adv-x="213" 
d="M193 373h-173v-125h173v125zM193 527h-173v-125h173v125z" />
    <glyph glyph-name="FL0167h" unicode="&#x3e;" horiz-adv-x="152" 
d="M20 252l112 44v183l-112 44v-117l47 -19l-47 -18v-117z" />
    <glyph glyph-name="FL003Fh" unicode="?" 
d="M52 184h138v35q0 12 1.5 31.5t11.5 37.5q19 19 35 32t31 25t29 26.5t29 36.5q8 11 10 31t2 43v75h-138v-51q0 -13 -3.5 -23.5t-8.5 -14.5q-24 -17 -45 -36.5t-38 -38.5t-28.5 -37t-16.5 -32q-4 -10 -6.5 -39.5t-2.5 -61.5v-39zM179 712q-40 0 -69.5 -3t-49.5 -16t-30 -38
t-10 -68h157h3h1h158q0 43 -10 68t-29.5 38t-50 16t-70.5 3zM190 0v125h-138v-125h138zM158 481v76h-138v-76h138z" />
    <glyph glyph-name="FL0040h" unicode="@" horiz-adv-x="689" 
d="M191 283q0 -44 9 -69t28 -37.5t48 -15.5t69 -3h164q40 0 70 3t50 16t30 38t10 69v273h-137v-254q0 -22 -22 -22h-12v148q0 43 -9 68t-28 38t-47.5 16t-68.5 3q-41 0 -70 -3t-47.5 -16t-27.5 -38t-9 -68v-146zM157 147v410h-137v-432q0 -44 10 -69t30 -37.5t50 -15.5
t70 -3h462v125h-463q-22 0 -22 22zM669 587q0 43 -10 68t-29.5 38t-50 16t-70.5 3h-329q-41 0 -71 -3t-49.5 -16t-29.5 -38t-10 -68h156h2h491zM363 410v-108q0 -11 -3.5 -16.5t-14.5 -5.5t-15 5.5t-4 16.5v108q0 10 3.5 15.5t14.5 6.5q11 -1 15 -6t4 -16z" />
    <glyph glyph-name="FL0042h" unicode="A" 
d="M20 0h138v133h43v-133h138v557h-138v-299h-43v299h-138v-557zM20 587h156h4h3h156q0 44 -10 69t-30 37.5t-49.5 15.5t-69.5 3t-70 -3t-50 -15.5t-30 -37.5t-10 -69z" />
    <glyph glyph-name="FL0043h" unicode="B" 
d="M201 472q0 -21 -18 -22h-25v107h-138v-557h160q40 0 69.5 3t49.5 15.5t30 37.5t10 69v154q0 48 -12.5 72.5t-35.5 35.5q22 11 35 34t13 66v70h-138v-85zM180 712h-160v-125h159h2h158q0 43 -10 68t-30 38t-49.5 16t-69.5 3zM201 147q0 -22 -21 -22h-22v200h21
q22 -1 22 -22v-156z" />
    <glyph glyph-name="c" unicode="C" 
d="M158 147v410h-138v-432q0 -44 10 -69t30 -37.5t50 -15.5t70 -3t69.5 3t49.5 15.5t30 37.5t10 69v178h-138v-156q0 -22 -21 -22q-22 0 -22 22zM181 587h158q0 43 -10 68t-30 38t-49.5 16t-69.5 3q-41 0 -71 -3t-49.5 -16t-29.5 -38t-10 -68h157h2h2zM339 409v148h-138
v-148h138z" />
    <glyph glyph-name="FL0044h" unicode="D" 
d="M20 0h160q40 0 69.5 3t49.5 15.5t30 37.5t10 69v432h-138v-410q0 -22 -21 -22h-22v432h-138v-557zM20 587h159h2h158q0 43 -10 68t-30 38t-49.5 16t-69.5 3h-160v-125z" />
    <glyph glyph-name="FL0045h" unicode="E" 
d="M339 278h-138v-153h-43v193h92v125h-92v114h-138v-557h319v278zM20 587h319v125h-319v-125zM339 482v75h-138v-75h138z" />
    <glyph glyph-name="FL0046h" unicode="F" 
d="M158 0v318h92v125h-92v114h-138v-557h138zM20 587h319v125h-319v-125zM339 482v75h-138v-75h138z" />
    <glyph glyph-name="FL0047h" unicode="G" 
d="M339 402h-153v-125h15v-152h-21q-22 0 -22 22v410h-138v-432q0 -44 10 -69t30 -37.5t50 -15.5t70 -3h21v-86h138v488zM20 587h157h2h2h158q0 43 -10 68t-30 38t-49.5 16t-69.5 3q-41 0 -71 -3t-49.5 -16t-29.5 -38t-10 -68zM339 507v50h-138v-50h138z" />
    <glyph glyph-name="FL0048h" unicode="H" 
d="M20 0h138v403h43v-403h138v557h-138v-29h-43v29h-138v-557zM20 587h138v125h-138v-125zM201 587h138v125h-138v-125z" />
    <glyph glyph-name="FL0049h" unicode="I" horiz-adv-x="286" 
d="M20 0h246v125h-54v432h-138v-432h-54v-125zM20 587h246v125h-246v-125z" />
    <glyph glyph-name="FL004Ah" unicode="J" 
d="M20 125q0 -44 10 -69t30 -37.5t50 -15.5t70 -3t69.5 3t49.5 15.5t30 37.5t10 69v432h-138v-410q0 -22 -21 -22q-22 0 -22 22v156h-138v-178zM201 587h138v125h-138v-125z" />
    <glyph glyph-name="FL004Bh" unicode="K" 
d="M201 472q0 -21 -18 -22h-25v107h-138v-557h138v325h21q22 -1 22 -22v-303h138v279q0 48 -12.5 72.5t-35.5 35.5q22 11 35 34t13 66v70h-138v-85zM158 712h-138v-125h138v125zM339 712h-138v-125h138v125z" />
    <glyph glyph-name="FL004Ch" unicode="L" 
d="M339 0v303h-138v-178h-43v432h-138v-557h319zM158 712h-138v-125h138v125z" />
    <glyph glyph-name="FL004Dh" unicode="M" horiz-adv-x="483" 
d="M215 0h53l57 297v-297h138v557h-191l-31 -146l-31 146h-190v-557h138v297zM279 587h184v125h-157zM20 587h183l-26 125h-157v-125z" />
    <glyph glyph-name="FL004Eh" unicode="N" horiz-adv-x="381" 
d="M218 0h143v557h-138v-141l-29 141h-174v-557h138v297zM20 587h168l-25 125h-143v-125zM223 587h138v125h-138v-125z" />
    <glyph glyph-name="FL004Fh" unicode="O" 
d="M20 125q0 -44 10 -69t30 -37.5t50 -15.5t70 -3t69.5 3t49.5 15.5t30 37.5t10 69v432h-138v-410q0 -22 -21 -22q-22 0 -22 22v410h-138v-432zM20 587h157h2h2h158q0 43 -10 68t-30 38t-49.5 16t-69.5 3q-41 0 -71 -3t-49.5 -16t-29.5 -38t-10 -68z" />
    <glyph glyph-name="FL0050h" unicode="P" 
d="M201 280q0 -22 -21 -22h-22v299h-138v-557h138v133h22q40 0 69.5 3t49.5 15.5t30 37.5t10 69v299h-138v-277zM180 712h-160v-125h159h2h158q0 43 -10 68t-30 38t-49.5 16t-69.5 3z" />
    <glyph glyph-name="FL0071h" unicode="Q" 
d="M201 125h-21q-22 0 -22 22v410h-138v-432q0 -44 10 -69t30 -37.5t50 -15.5t70 -3h21v-86h138v643h-138v-432zM180 712q-41 0 -71 -3t-49.5 -16t-29.5 -38t-10 -68h157h2h2h158q0 43 -10 68t-30 38t-49.5 16t-69.5 3z" />
    <glyph glyph-name="FL0052h" unicode="R" 
d="M201 472q0 -21 -18 -22h-25v107h-138v-557h138v325h21q22 -1 22 -22v-303h138v279q0 48 -12.5 72.5t-35.5 35.5q22 11 35 34t13 66v70h-138v-85zM180 712h-160v-125h159h2h158q0 43 -10 68t-30 38t-49.5 16t-69.5 3z" />
    <glyph glyph-name="FL0053h" unicode="S" 
d="M158 147v131h-138v-153q0 -44 10 -69t30 -37.5t50 -15.5t70 -3t69.5 3t49.5 15.5t30 37.5t10 69v98q0 32 -2 62t-7 39q-6 24 -22.5 43t-39 35.5t-48.5 32.5t-50 33q-5 4 -8.5 14.5t-3.5 23.5v51h-138v-81q0 -20 1.5 -36.5t8.5 -28.5q11 -24 30 -39t41 -27.5t45 -25
t42 -31.5q10 -18 11.5 -37.5t1.5 -31.5v-72q0 -22 -21 -22q-22 0 -22 22zM180 712q-41 0 -71 -3t-49.5 -16t-29.5 -38t-10 -68h319q0 43 -10 68t-30 38t-49.5 16t-69.5 3zM339 481v76h-138v-76h138z" />
    <glyph glyph-name="FL0055h" unicode="T" horiz-adv-x="318" 
d="M90 0h138v557h-138v-557zM20 587h278v125h-278v-125z" />
    <glyph glyph-name="FL0057h" unicode="U" 
d="M20 125q0 -44 10 -69t30 -37.5t50 -15.5t70 -3t69.5 3t49.5 15.5t30 37.5t10 69v432h-138v-410q0 -22 -21 -22q-22 0 -22 22v410h-138v-432zM20 587h138v125h-138v-125zM201 587h138v125h-138v-125z" />
    <glyph glyph-name="FL0059h" unicode="V" 
d="M20 117q23 -33 59 -64t68 -53h65q35 24 70.5 56t56.5 61v440h-138v-404l-22 -20l-21 20v404h-138v-440zM20 587h138v125h-138v-125zM201 587h138v125h-138v-125z" />
    <glyph glyph-name="FL0058h" unicode="W" horiz-adv-x="538" 
d="M20 117q23 -33 59 -64t68 -53h64q15 10 29.5 20.5t28.5 23.5q14 -13 28.5 -23.5t29.5 -20.5h64q35 24 70.5 56t56.5 61v440h-138v-404l-22 -20l-20 20v404h-138v-404l-21 -20l-21 20v404h-138v-440zM518 712h-138v-125h138v125zM158 712h-138v-125h138v125zM338 712h-138
v-125h138v125z" />
    <glyph glyph-name="FL005Bh" unicode="X" 
d="M179 450q-21 0 -21 22v85h-138v-70q0 -43 13 -66t35 -34q-23 -11 -35.5 -35.5t-12.5 -72.5v-279h138v303q0 19 21 22q22 -1 22 -22v-303h138v279q0 48 -12.5 72.5t-35.5 35.5q22 11 35 34t13 66v70h-138v-85q0 -22 -22 -22zM201 712v-125h138v125h-138zM158 712h-138
v-125h138v125z" />
    <glyph glyph-name="FL005Ch" unicode="Y" 
d="M201 409h-24q-18 1 -19 19v129h-138v-148q0 -44 10 -69t30 -37.5t50 -15.5t70 -3h21v-137q0 -21 -21 -22q-22 1 -22 22v58h-138v-80q0 -44 10 -68.5t30 -37.5t49.5 -16t69.5 -3t70.5 3t50 16t29.5 37.5t10 68.5v432h-138v-148zM158 712h-138v-125h138v125zM339 712h-138
v-125h138v125z" />
    <glyph glyph-name="FL005Dh" unicode="Z" horiz-adv-x="360" 
d="M201 278v-153h-43v94q0 12 1.5 31.5t11.5 37.5q19 19 41 31.5t43.5 24.5t40.5 27t33 40q7 12 8.5 30.5t1.5 41.5v74h-138v-51q0 -13 -3.5 -23.5t-8.5 -14.5q-24 -17 -50.5 -31.5t-49.5 -31t-39.5 -36t-20.5 -45.5q-5 -9 -7 -39t-2 -62v-223h319v278h-138zM20 587h319v125
h-319v-125zM158 482v75h-138v-75h138z" />
    <glyph glyph-name="FL005Eh" unicode="[" horiz-adv-x="231" 
d="M158 125v432h-138v-557h191v125h-53zM20 712v-125h191v125h-191z" />
    <glyph glyph-name="FL0060h" unicode="\" 
d="M201 0h138v223q0 32 -2 62t-7 39q-7 27 -24 46.5t-39 35.5t-47.5 30.5t-49.5 31.5q-5 4 -8.5 14.5t-3.5 23.5v51h-138v-82q0 -21 1 -38t9 -29q14 -24 33.5 -39t40.5 -26.5t43 -23.5t41 -31q10 -18 11.5 -37.5t1.5 -31.5v-219zM158 712h-138v-125h138v125z" />
    <glyph glyph-name="FL005Fh" unicode="]" horiz-adv-x="231" 
d="M20 125v-125h191v557h-138v-432h-53zM211 712h-191v-125h191v125z" />
    <glyph glyph-name="FL0041h" unicode="^" 
d="M20 0h138v133h43v-133h138v557h-138v-299h-43v299h-138v-557zM20 587h156h4h159v125h-159q-40 0 -70 -3t-50 -15.5t-30 -37.5t-10 -69z" />
    <glyph glyph-name="FL0061h" unicode="_" horiz-adv-x="270" 
d="M250 0v125h-230v-125h230z" />
    <glyph glyph-name="FL0067h" unicode="`" horiz-adv-x="156" 
d="M136 749l-37 112h-128l49 -112h116z" />
    <glyph glyph-name="FL00BCh" unicode="a" 
d="M158 258v299h-138v-557h138v133h43v-133h138v557h-138v-299h-43zM20 587h156h4h3h156q0 44 -10 69t-30 37.5t-49.5 15.5t-69.5 3t-70 -3t-50 -15.5t-30 -37.5t-10 -69z" />
    <glyph glyph-name="FL0062h" unicode="b" 
d="M201 472q0 -21 -18 -22h-25v107h-138v-557h160q40 0 69.5 3t49.5 15.5t30 37.5t10 69v154q0 48 -12.5 72.5t-35.5 35.5q22 11 35 34t13 66v70h-138v-85zM180 712h-160v-125h159h2h158q0 43 -10 68t-30 38t-49.5 16t-69.5 3zM201 147q0 -22 -21 -22h-22v200h21
q22 -1 22 -22v-156z" />
    <glyph glyph-name="FL0063h" unicode="c" horiz-adv-x="290" 
d="M158 147v410h-138v-432q0 -44 10 -69t30 -37.5t50 -15.5t70 -3h90v125h-90q-22 0 -22 22zM180 712q-41 0 -71 -3t-49.5 -16t-29.5 -38t-10 -68h157h2h91v125h-90z" />
    <glyph glyph-name="FL0064h" unicode="d" 
d="M20 0h160q40 0 69.5 3t49.5 15.5t30 37.5t10 69v432h-138v-410q0 -22 -21 -22h-22v432h-138v-557zM20 587h159h2h158q0 43 -10 68t-30 38t-49.5 16t-69.5 3h-160v-125z" />
    <glyph glyph-name="FL0065h" unicode="e" horiz-adv-x="270" 
d="M158 528v29h-138v-557h230v125h-92v278h92v125h-92zM250 712h-230v-125h230v125z" />
    <glyph glyph-name="FL0066h" unicode="f" horiz-adv-x="270" 
d="M158 528v29h-138v-557h138v403h92v125h-92zM250 712h-230v-125h230v125z" />
    <glyph glyph-name="FLE003h" unicode="g" 
d="M339 402h-153v-125h15v-152h-21q-22 0 -22 22v410h-138v-432q0 -44 10 -69t30 -37.5t50 -15.5t70 -3h159v402zM20 587h159h2h158q0 43 -10 68t-30 38t-49.5 16t-69.5 3q-41 0 -71 -3t-49.5 -16t-29.5 -38t-10 -68zM339 507v50h-138v-50h138z" />
    <glyph glyph-name="FL0068h" unicode="h" 
d="M20 0h138v403h43v-403h138v557h-138v-29h-43v29h-138v-557zM20 587h138v125h-138v-125zM201 587h138v125h-138v-125z" />
    <glyph glyph-name="FL0069h" unicode="i" horiz-adv-x="178" 
d="M20 0h138v557h-138v-557zM158 712h-138v-125h138v125z" />
    <glyph glyph-name="FL006Ah" unicode="j" horiz-adv-x="270" 
d="M20 0h71q40 0 69.5 3t49.5 15.5t30 37.5t10 69v432h-138v-410q0 -22 -21 -22h-71v-125zM112 587h138v125h-138v-125z" />
    <glyph glyph-name="FL006Bh" unicode="k" 
d="M201 472q0 -21 -18 -22h-25v107h-138v-557h138v325h21q22 -1 22 -22v-303h138v279q0 48 -12.5 72.5t-35.5 35.5q22 11 35 34t13 66v70h-138v-85zM158 712h-138v-125h138v125zM339 712h-138v-125h138v125z" />
    <glyph glyph-name="FL006Ch" unicode="l" horiz-adv-x="270" 
d="M250 0v125h-92v432h-138v-557h230zM158 712h-138v-125h138v125z" />
    <glyph glyph-name="FL006Dh" unicode="m" horiz-adv-x="483" 
d="M215 0h53l57 297v-297h138v557h-191l-31 -146l-31 146h-190v-557h138v297zM279 587h184v125h-157zM20 587h183l-26 125h-157v-125z" />
    <glyph glyph-name="FL006Eh" unicode="n" horiz-adv-x="381" 
d="M218 0h143v557h-138v-141l-29 141h-174v-557h138v297zM20 587h168l-25 125h-143v-125zM223 587h138v125h-138v-125z" />
    <glyph glyph-name="FL006Fh" unicode="o" 
d="M180 125q-22 0 -22 22v410h-138v-432q0 -44 10 -69t30 -37.5t50 -15.5t70 -3t69.5 3t49.5 15.5t30 37.5t10 69v432h-138v-410q0 -22 -21 -22zM20 587h319q0 43 -10 68t-30 38t-49.5 16t-69.5 3q-41 0 -71 -3t-49.5 -16t-29.5 -38t-10 -68z" />
    <glyph glyph-name="FL0070h" unicode="p" 
d="M201 280q0 -22 -21 -22h-22v299h-138v-557h138v133h22q40 0 69.5 3t49.5 15.5t30 37.5t10 69v299h-138v-277zM180 712h-160v-125h159h2h158q0 43 -10 68t-30 38t-49.5 16t-69.5 3z" />
    <glyph glyph-name="FL0074h" unicode="q" 
d="M339 125v432h-138v-410q0 -22 -21 -22q-22 0 -22 22v410h-138v-432q0 -66 22.5 -91.5t67.5 -30.5v-89h138v89q22 3 39.5 10t28.5 20.5t17 35.5t6 56zM20 587h157h2h2h158q0 43 -10 68t-30 38t-49.5 16t-69.5 3q-41 0 -71 -3t-49.5 -16t-29.5 -38t-10 -68z" />
    <glyph glyph-name="FL0072h" unicode="r" 
d="M201 472q0 -21 -18 -22h-25v107h-138v-557h138v325h21q22 -1 22 -22v-303h138v279q0 48 -12.5 72.5t-35.5 35.5q22 11 35 34t13 66v70h-138v-85zM180 712h-160v-125h159h2h158q0 43 -10 68t-30 38t-49.5 16t-69.5 3z" />
    <glyph glyph-name="FL0073h" unicode="s" 
d="M158 147v131h-138v-153q0 -44 10 -69t30 -37.5t50 -15.5t70 -3t69.5 3t49.5 15.5t30 37.5t10 69v98q0 32 -2 62t-7 39q-6 24 -22.5 43t-39 35.5t-48.5 32.5t-50 33q-5 4 -8.5 14.5t-3.5 23.5v51h-138v-81q0 -20 1.5 -36.5t8.5 -28.5q11 -24 30 -39t41 -27.5t45 -25
t42 -31.5q10 -18 11.5 -37.5t1.5 -31.5v-72q0 -22 -21 -22q-22 0 -22 22zM180 712q-41 0 -71 -3t-49.5 -16t-29.5 -38t-10 -68h319q0 43 -10 68t-30 38t-49.5 16t-69.5 3zM339 481v76h-138v-76h138z" />
    <glyph glyph-name="FL00B8h" unicode="t" horiz-adv-x="318" 
d="M90 0h138v557h-138v-557zM20 587h278v125h-278v-125z" />
    <glyph glyph-name="FL0075h" unicode="u" 
d="M20 125q0 -44 10 -69t30 -37.5t50 -15.5t70 -3t69.5 3t49.5 15.5t30 37.5t10 69v432h-138v-410q0 -22 -21 -22q-22 0 -22 22v410h-138v-432zM20 587h138v125h-138v-125zM201 587h138v125h-138v-125z" />
    <glyph glyph-name="FL0056h" unicode="v" 
d="M20 117q23 -33 59 -64t68 -53h65q35 24 70.5 56t56.5 61v440h-138v-404l-22 -20l-21 20v404h-138v-440zM20 587h138v125h-138v-125zM201 587h138v125h-138v-125z" />
    <glyph glyph-name="FL007Eh" unicode="w" horiz-adv-x="538" 
d="M20 117q23 -33 59 -64t68 -53h64q15 10 29.5 20.5t28.5 23.5q14 -13 28.5 -23.5t29.5 -20.5h64q35 24 70.5 56t56.5 61v440h-138v-404l-22 -20l-20 20v404h-138v-404l-21 -20l-21 20v404h-138v-440zM518 712h-138v-125h138v125zM158 712h-138v-125h138v125zM338 712h-138
v-125h138v125z" />
    <glyph glyph-name="FL0078h" unicode="x" 
d="M179 450q-21 0 -21 22v85h-138v-70q0 -43 13 -66t35 -34q-23 -11 -35.5 -35.5t-12.5 -72.5v-279h138v303q0 19 21 22q22 -1 22 -22v-303h138v279q0 48 -12.5 72.5t-35.5 35.5q22 11 35 34t13 66v70h-138v-85q0 -22 -22 -22zM201 712v-125h138v125h-138zM158 712h-138
v-125h138v125z" />
    <glyph glyph-name="FL007Bh" unicode="y" 
d="M20 258q0 -66 22.5 -91.5t67.5 -30.5v-136h138v136q22 3 39.5 10t28.5 20.5t17 35.5t6 56v299h-138v-277q0 -22 -21 -22q-22 0 -22 22v277h-138v-299zM339 712h-138v-125h138v125zM158 712h-138v-125h138v125z" />
    <glyph glyph-name="FL007Ah" unicode="z" horiz-adv-x="360" 
d="M201 278v-153h-43v94q0 12 1.5 31.5t11.5 37.5q19 19 41 31.5t43.5 24.5t40.5 27t33 40q7 12 8.5 30.5t1.5 41.5v74h-138v-51q0 -13 -3.5 -23.5t-8.5 -14.5q-24 -17 -50.5 -31.5t-49.5 -31t-39.5 -36t-20.5 -45.5q-5 -9 -7 -39t-2 -62v-223h319v278h-138zM20 587h319v125
h-319v-125zM158 482v75h-138v-75h138z" />
    <glyph glyph-name="FL0083h" unicode="{" horiz-adv-x="538" 
d="M518 0v557h-138v-557h138zM338 0v557h-138v-557h138zM20 0h138v557h-138v-557zM20 587h498q0 44 -10 69t-30 37.5t-49.5 15.5t-69.5 3h-339v-125z" />
    <glyph glyph-name="FL0081h" unicode="|" horiz-adv-x="178" 
d="M20 -86h138v643h-138v-643zM20 587h138v214h-138v-214z" />
    <glyph glyph-name="FL0082h" unicode="}" horiz-adv-x="538" 
d="M180 0h179q40 0 69.5 3t49.5 15.5t30 37.5t10 69v432h-138v-410q0 -22 -21 -22h-21v432h-138v-432h-20q-22 0 -22 22v410h-138v-432q0 -44 10 -69t30 -37.5t50 -15.5t70 -3zM20 712v-125h138v125h-138zM338 712h-138v-125h138v125zM518 712h-138v-125h138v125z" />
    <glyph glyph-name="FL0080h" unicode="~" 
d="M158 0v557h-138v-557h138zM339 0v557h-138v-557h138zM20 712v-125h319q0 44 -10 69t-30 37.5t-49.5 15.5t-69.5 3h-160z" />
    <glyph glyph-name="FL007Fh" horiz-adv-x="99" 
 />
    <glyph glyph-name="FL20ACh" unicode="&#x20ac;" horiz-adv-x="333" 
d="M262 373h-61v29h61v125h-61v30h-138v-30h-43v-125h43v-29h-43v-125h43v-123q0 -44 10 -69t30 -37.5t50 -15.5t70 -3h90v125h-90q-22 0 -22 22v101h61v125zM63 587h157h2h91v125h-90q-41 0 -71 -3t-49.5 -16t-29.5 -38t-10 -68z" />
    <glyph glyph-name="FL201Ah" unicode="&#x201a;" horiz-adv-x="178" 
d="M81 -70h77v195h-138v-125h61v-70z" />
    <glyph glyph-name="FL0192h" unicode="&#x192;" horiz-adv-x="270" 
d="M158 528v29h-138v-557h138v403h92v125h-92zM250 712h-71q-40 0 -69.5 -3t-49.5 -15.5t-30 -37.5t-10 -69h155h4h71v125z" />
    <glyph glyph-name="FL201Eh" unicode="&#x201e;" horiz-adv-x="341" 
d="M81 -70h77v195h-138v-125h61v-70zM244 -70h77v195h-138v-125h61v-70z" />
    <glyph glyph-name="FL0C68h" unicode="&#x2026;" horiz-adv-x="512" 
d="M325 0v125h-138v-125h138zM158 0v125h-138v-125h138zM492 0v125h-138v-125h138z" />
    <glyph glyph-name="FL2020h" unicode="&#x2020;" horiz-adv-x="262" 
d="M242 527h-43v30h-138v-30h-41v-125h41v-402h138v402h43v125zM61 587h138v125h-138v-125z" />
    <glyph glyph-name="FL2021h" unicode="&#x2021;" horiz-adv-x="262" 
d="M242 527h-43v30h-138v-30h-41v-125h41v-29h-41v-125h41v-248h138v248h43v125h-43v29h43v125zM61 587h138v125h-138v-125z" />
    <glyph glyph-name="FL02C6h" unicode="&#x2c6;" horiz-adv-x="311" 
d="M20 749h117l18 48l19 -48h117l-44 112h-183z" />
    <glyph glyph-name="FL0EE6h" unicode="&#x2030;" horiz-adv-x="653" 
d="M87 0h117v208q0 12 1.5 23t11.5 29q38 38 80.5 73t77.5 75q7 8 8.5 25.5t1.5 40.5v83h-117v-59q0 -13 -3.5 -27t-8.5 -18q-20 -18 -42.5 -39.5t-44 -42.5t-40 -41t-29.5 -35q-13 -16 -13 -83v-212zM289 255v-225q0 -23 5.5 -36t16 -19.5t25.5 -8t35 -1.5t35 1.5t25.5 8
t15.5 19.5t5 36v225q0 23 -5 36t-15.5 20t-25.5 8.5t-35 1.5t-35 -1.5t-25.5 -8.5t-16 -20t-5.5 -36zM470 255v-225q0 -23 5.5 -36t16 -19.5t25.5 -8t35 -1.5t35 1.5t25.5 8t15.5 19.5t5 36v225q0 23 -5 36t-15.5 20t-25.5 8.5t-35 1.5t-35 -1.5t-25.5 -8.5t-16 -20
t-5.5 -36zM102 461q-6 0 -6 6v90h-76v-101q0 -23 5.5 -36t16 -19.5t25.5 -8t35 -1.5t35 1.5t25.5 8t15.5 19.5t5 36v101h-75v-90q0 -6 -6 -6zM20 681v-94h76v83q0 6 5 6q7 0 7 -6v-83h75v94q0 23 -5 36t-15.5 20t-25.5 8.5t-35 1.5t-35 -1.5t-25.5 -8.5t-16 -20t-5.5 -36z
M385 712h-117v-125h117v125zM558 244v-203q0 -6 -6 -6t-6 6v203q0 6 5 6q7 0 7 -6zM377 244v-203q0 -6 -6 -6t-6 6v203q0 6 5 6q7 0 7 -6z" />
    <glyph glyph-name="FL0160h" unicode="&#x160;" 
d="M158 147v131h-138v-153q0 -44 10 -69t30 -37.5t50 -15.5t70 -3t69.5 3t49.5 15.5t30 37.5t10 69v98q0 32 -2 62t-7 39q-6 24 -22.5 43t-39 35.5t-48.5 32.5t-50 33q-5 4 -8.5 14.5t-3.5 23.5v51h-138v-81q0 -20 1.5 -36.5t8.5 -28.5q11 -24 30 -39t41 -27.5t45 -25
t42 -31.5q10 -18 11.5 -37.5t1.5 -31.5v-72q0 -22 -21 -22q-22 0 -22 22zM181 587h158q0 43 -10 68t-30 38t-49.5 16t-69.5 3q-41 0 -71 -3t-49.5 -16t-29.5 -38t-10 -68h159h2zM314 861h-117l-18 -48l-19 48h-117l44 -112h183zM339 481v76h-138v-76h138z" />
    <glyph glyph-name="FL2039h" unicode="&#x2039;" horiz-adv-x="152" 
d="M132 252v117l-47 18l47 19v117l-112 -44v-183z" />
    <glyph glyph-name="FL0152h" unicode="&#x152;" horiz-adv-x="451" 
d="M201 143q-2 -18 -21 -18q-22 0 -22 22v410h-138v-432q0 -44 10 -69t30 -37.5t50 -15.5t70 -3h251v125h-92v278h92v125h-92v29h-138v-414zM431 712h-251q-41 0 -71 -3t-49.5 -16t-29.5 -38t-10 -68h159h1h251v125z" />
    <glyph glyph-name="FL017Dh" unicode="&#x17d;" 
d="M201 278v-153h-43v94q0 12 1.5 31.5t11.5 37.5q19 19 41 31.5t43.5 24.5t40.5 27t33 40q7 12 8.5 30.5t1.5 41.5v74h-138v-51q0 -13 -3.5 -23.5t-8.5 -14.5q-24 -17 -49.5 -31.5t-47.5 -30.5t-39 -35.5t-24 -46.5q-5 -9 -7 -39t-2 -62v-223h319v278h-138zM20 587h319v125
h-319v-125zM197 861l-18 -48l-19 48h-117l44 -112h183l44 112h-117zM158 482v75h-138v-75h138z" />
    <glyph glyph-name="FL2018h" unicode="&#x2018;" horiz-adv-x="176" 
d="M20 587h136v125q-35 0 -60.5 -4.5t-42 -17.5t-25 -38t-8.5 -65zM156 506v51h-136v-51h136z" />
    <glyph glyph-name="FL2019h" unicode="&#x2019;" horiz-adv-x="176" 
d="M20 712v-125h132q4 15 4 44v81h-136zM144 557h-124v-51q48 0 79 9.5t45 41.5z" />
    <glyph glyph-name="FL201Ch" unicode="&#x201c;" horiz-adv-x="335" 
d="M181 587h134v125q-35 0 -60 -4.5t-41.5 -17.5t-24.5 -38t-8 -65zM20 587h134v125q-35 0 -60 -4.5t-41.5 -17.5t-24.5 -38t-8 -65zM154 506v51h-134v-51h134zM315 506v51h-134v-51h134z" />
    <glyph glyph-name="FL201Dh" unicode="&#x201d;" horiz-adv-x="335" 
d="M20 712v-125h130q4 15 4 44v81h-134zM181 712v-125h130q4 15 4 44v81h-134zM303 557h-122v-51q48 0 78 9.5t44 41.5zM142 557h-122v-51q48 0 78 9.5t44 41.5z" />
    <glyph glyph-name="FL2022h" unicode="&#x2022;" 
d="M20 125q0 -44 10 -69t30 -37.5t50 -15.5t70 -3t69.5 3t49.5 15.5t30 37.5t10 69v432h-319v-432zM20 587h319q0 43 -10 68t-30 38t-49.5 16t-69.5 3q-41 0 -71 -3t-49.5 -16t-29.5 -38t-10 -68z" />
    <glyph glyph-name="FL2013h" unicode="&#x2013;" horiz-adv-x="188" 
d="M168 450h-148v-125h148v125z" />
    <glyph glyph-name="FL2014h" unicode="&#x2014;" horiz-adv-x="262" 
d="M242 325v125h-222v-125h222z" />
    <glyph glyph-name="FL02DCh" unicode="&#x2dc;" horiz-adv-x="279" 
d="M259 749l44 112h-68l-18 -48l-19 48h-134l-44 -112h68l18 48l19 -48h134z" />
    <glyph glyph-name="trademark" unicode="&#x2122;" horiz-adv-x="264" 
d="M123 596h23v127l26 -127h22l27 127v-127h23v160h-38l-22 -111l-23 111h-38v-160zM52 596h25v132h36v28h-98v-28h37v-132z" />
    <glyph glyph-name="FL0161h" unicode="&#x161;" 
d="M158 147v131h-138v-153q0 -44 10 -69t30 -37.5t50 -15.5t70 -3t69.5 3t49.5 15.5t30 37.5t10 69v98q0 32 -2 62t-7 39q-6 24 -22.5 43t-39 35.5t-48.5 32.5t-50 33q-5 4 -8.5 14.5t-3.5 23.5v51h-138v-81q0 -20 1.5 -36.5t8.5 -28.5q11 -24 30 -39t41 -27.5t45 -25
t42 -31.5q10 -18 11.5 -37.5t1.5 -31.5v-72q0 -22 -21 -22q-22 0 -22 22zM181 587h158q0 43 -10 68t-30 38t-49.5 16t-69.5 3q-41 0 -71 -3t-49.5 -16t-29.5 -38t-10 -68h159h2zM314 861h-117l-18 -48l-19 48h-117l44 -112h183zM339 481v76h-138v-76h138z" />
    <glyph glyph-name="FL203Ah" unicode="&#x203a;" horiz-adv-x="152" 
d="M20 252l112 44v183l-112 44v-117l47 -19l-47 -18v-117z" />
    <glyph glyph-name="FL0153h" unicode="&#x153;" horiz-adv-x="451" 
d="M201 143q-2 -18 -21 -18q-22 0 -22 22v410h-138v-432q0 -44 10 -69t30 -37.5t50 -15.5t70 -3h251v125h-92v278h92v125h-92v29h-138v-414zM431 712h-251q-41 0 -71 -3t-49.5 -16t-29.5 -38t-10 -68h159h1h251v125z" />
    <glyph glyph-name="FL017Eh" unicode="&#x17e;" 
d="M201 278v-153h-43v94q0 12 1.5 31.5t11.5 37.5q19 19 41 31.5t43.5 24.5t40.5 27t33 40q7 12 8.5 30.5t1.5 41.5v74h-138v-51q0 -13 -3.5 -23.5t-8.5 -14.5q-24 -17 -49.5 -31.5t-47.5 -30.5t-39 -35.5t-24 -46.5q-5 -9 -7 -39t-2 -62v-223h319v278h-138zM20 587h319v125
h-319v-125zM197 861l-18 -48l-19 48h-117l44 -112h183l44 112h-117zM158 482v75h-138v-75h138z" />
    <glyph glyph-name="FL0178h" unicode="&#x178;" 
d="M20 258q0 -66 22.5 -91.5t67.5 -30.5v-136h138v136q22 3 39.5 10t28.5 20.5t17 35.5t6 56v299h-138v-277q0 -22 -21 -22q-22 0 -22 22v277h-138v-299zM339 712h-138v-125h138v125zM158 712h-138v-125h138v125zM166 749v112h-123v-112h123zM316 749v112h-123v-112h123z
" />
    <glyph glyph-name="space" unicode="&#xa0;" horiz-adv-x="174" 
 />
    <glyph glyph-name="FL00A1h" unicode="&#xa1;" horiz-adv-x="178" 
d="M20 528v-528h138v528h-138zM158 712h-138v-125h138v125z" />
    <glyph glyph-name="FL00A2h" unicode="&#xa2;" 
d="M248 0v82q22 3 39.5 10t28.5 20.5t17 35.5t6 56v99h-138v-77q0 -22 -21 -22q-22 0 -22 22v261q0 20 21 22q22 -1 22 -22v-78h138v100q0 33 -4 48h-311q-4 -15 -4 -48v-305q0 -66 22.5 -91.5t67.5 -30.5v-82h138zM34 587h290q-11 20 -30 30t-46 14v81h-138v-81
q-27 -4 -46 -14t-30 -30z" />
    <glyph glyph-name="FL0B06h" unicode="&#xa3;" horiz-adv-x="312" 
d="M188 325h75v125h-75v107h-138v-107h-30v-125h30v-200h-30v-125h272v125h-104v200zM50 587h157h3h25v125h-26q-40 0 -69.5 -3t-49.5 -16t-30 -38t-10 -68z" />
    <glyph glyph-name="FL0BE5h" unicode="&#xa4;" 
d="M55 390v-5q-35 -26 -35 -106v-279h138v50h43v-50h138v279q0 80 -36 106v6q36 25 36 96v70h-319v-70q0 -71 35 -97zM339 712h-138v-49h-43v49h-138v-125h319v125zM196 536v-358q0 -19 -16 -19q-18 0 -18 19v358q0 17 17 19q17 -2 17 -19z" />
    <glyph glyph-name="FL00A5h" unicode="&#xa5;" 
d="M339 167h-91v29h91v125h-91v29q22 3 39.5 10t28.5 20.5t17 35.5t6 56v85h-138v-63q0 -22 -21 -22q-22 0 -22 22v63h-138v-85q0 -66 22.5 -91.5t67.5 -30.5v-29h-90v-125h90v-29h-90v-125h90v-42h138v42h91v125zM20 587h138v125h-138v-125zM201 587h138v125h-138v-125z
" />
    <glyph glyph-name="FL00A6h" unicode="&#xa6;" horiz-adv-x="178" 
d="M158 343h-138v-429h138v429zM20 801v-214h138v214h-138zM158 373v184h-138v-184h138z" />
    <glyph glyph-name="FL00BDh" unicode="&#xa7;" 
d="M55 379q-17 -13 -26 -35.5t-9 -64.5v-279h138v50h22q31 0 54 2.5t38.5 13.5t23 33t7.5 60v235q17 12 26.5 34t9.5 59v70h-284v-2v-176zM339 712h-138v-49h-21q-28 0 -49.5 -2t-37 -10t-25 -23t-12.5 -41h283v125zM196 536v-358q0 -19 -16 -19q-18 0 -18 19v358
q0 17 17 19q17 -2 17 -19z" />
    <glyph glyph-name="FL00A8h" unicode="&#xa8;" horiz-adv-x="313" 
d="M143 749v112h-123v-112h123zM293 749v112h-123v-112h123z" />
    <glyph glyph-name="FL0ACCh" unicode="&#xa9;" horiz-adv-x="185" 
d="M93 757q-9 0 -17.5 -2.5t-20.5 -7.5q-35 -23 -35 -63q0 -23 10 -36q6 -9 11.5 -14.5t16.5 -13.5l25.5 -6t9.5 -2q10 1 14.5 2t19.5 7l6 4q8 5 12.5 9t9.5 15q10 16 10 35q0 20 -10 36v-1q-7 16 -28 29q-15 9 -34 9zM93 740h2q20 0 36.5 -16.5t16.5 -36.5v-3
q0 -12 -8 -25.5t-21 -21.5q-13 -7 -24 -7q-4 0 -11.5 1t-18.5 6q-15 10 -19 19q-8 14 -8 28t7 27q18 29 48 29zM115 678q-4 -19 -21 -19q-21 0 -21 25q0 26 22 26q11 0 19 -14l16 4q-8 27 -35 27q-40 0 -40 -43t40 -43q29 0 36 31z" />
    <glyph glyph-name="FL00AAh" unicode="&#xaa;" 
d="M339 0v557h-138v-129h-21q-40 0 -70 -3t-50 -15.5t-30 -37.5t-10 -69v-178q0 -44 10 -69t30 -37.5t49.5 -15.5t69.5 -3h160zM20 587h157h3h1h158q0 43 -10 68t-29.5 38t-50 16t-70.5 3t-69.5 -3t-49.5 -16t-30 -38t-10 -68zM201 303v-178h-22q-20 0 -21 18v141
q1 18 19 19h24zM158 507v50h-138v-50h138z" />
    <glyph glyph-name="FL00ABh" unicode="&#xab;" horiz-adv-x="284" 
d="M264 252v117l-47 18l47 19v117l-112 -44v-183zM132 252v117l-47 18l47 19v117l-112 -44v-183z" />
    <glyph glyph-name="FL00ACh" unicode="&#xac;" horiz-adv-x="239" 
d="M219 276v174h-199v-125h74v-49h125z" />
    <glyph glyph-name="FL00AEh" unicode="&#xad;" horiz-adv-x="147" 
d="M127 450h-107v-125h107v125z" />
    <glyph glyph-name="FL00B1h" unicode="&#xae;" horiz-adv-x="185" 
d="M93 757q-10 0 -19 -2t-17 -7h1q-10 -5 -16.5 -12t-11.5 -16l-1 -2q-5 -8 -7 -14.5t-2 -18.5q0 -22 11 -36q13 -18 25 -27q13 -9 37 -9h9q6 0 10 2t15 7q24 13 28 28q10 16 10 35q0 17 -10.5 35t-28.5 28l1 -1q-8 6 -15.5 8t-18.5 2zM61 644h17v32h4q5 0 8 -4q1 0 10 -12
l8 -16h20l-9 -7v1q-7 -4 -13.5 -5t-12.5 -1h-2q-3 0 -9 0.5t-17 5.5v-1q-14 11 -20 21l-7 27q0 13 8 27q16 28 47 28h2q20 0 36 -16.5t16 -36.5v-7l-3 -10.5t-5 -11.5l1 1q-2 -4 -4.5 -7.5t-6.5 -6.5l-12 18q-3 3 -5 7.5t-6 8.5q8 2 12.5 7t4.5 16q0 4 -2 6.5t-4 6.5
l-2.5 2.5t-3.5 2.5h-2q-3 4 -21 4h-27v-80zM88 708q10 0 11 -1q5 0 5 -6q0 -5 -3 -7.5t-12 -2.5h-11v17h10z" />
    <glyph glyph-name="FL00AFh" unicode="&#xaf;" horiz-adv-x="270" 
d="M250 587v125h-230v-125h230z" />
    <glyph glyph-name="FL00B0h" unicode="&#xb0;" horiz-adv-x="163" 
d="M143 861h-123v-112h123v112zM99 792h-35v26h35v-26z" />
    <glyph glyph-name="FL0B5Eh" unicode="&#xb1;" horiz-adv-x="262" 
d="M194 276v49h48v125h-48v48h-125v-48h-49v-125h49v-49h125zM242 122v125h-222v-125h222z" />
    <glyph glyph-name="FL00B2h" unicode="&#xb2;" horiz-adv-x="203" 
d="M96 511q0 6 0.5 16t3.5 18v-2q8 8 17 14h-95q-1 -5 -1.5 -10t-0.5 -10v-24v-113h163v136h-74v-66h-13v41zM37 587h128q2 2 5.5 6t7.5 9q4 8 4.5 16.5t0.5 20.5v51q0 23 -5 36t-15 20t-25 8.5t-35 1.5t-35 -1.5t-26 -8.5t-16.5 -20t-5.5 -36v-52h76v41q0 6 5 6q7 0 7 -6
v-28q0 -5 -1 -11.5t-3 -8.5h1q-16 -12 -35 -21t-33 -23z" />
    <glyph glyph-name="FL00B3h" unicode="&#xb3;" horiz-adv-x="158" 
d="M120 593q8 7 13 18.5t5 29.5v49q0 23 -5 36t-15.5 20t-25.5 8.5t-34 1.5h-38v-71h38q5 0 5 -6v-45q0 -5 -3 -5h-40v-42h106zM63 552v-76q0 -6 -5 -6h-38v-70h38q19 0 34 1.5t25.5 8t15.5 19.5t5 36v75q0 5 -0.5 9t-0.5 8h-76q2 -2 2 -5z" />
    <glyph glyph-name="FL00B4h" unicode="&#xb4;" horiz-adv-x="156" 
d="M57 861l-37 -112h116l49 112h-128z" />
    <glyph glyph-name="FL00B5h" unicode="&#xb5;" 
d="M20 -86h138v86h22q40 0 69.5 3t49.5 15.5t30 37.5t10 69v432h-138v-410q0 -22 -21 -22t-22 18v414h-138v-643zM20 587h138v125h-138v-125zM201 587h138v125h-138v-125z" />
    <glyph glyph-name="FL00B6h" unicode="&#xb6;" horiz-adv-x="270" 
d="M158 0v557h-138v-557h138zM250 712h-71q-40 0 -69.5 -3t-49.5 -15.5t-30 -37.5t-10 -69h230v125z" />
    <glyph glyph-name="FL00B7h" unicode="&#xb7;" horiz-adv-x="178" 
d="M158 213v125h-138v-125h138z" />
    <glyph glyph-name="FL00B9h" unicode="&#xb8;" horiz-adv-x="117" 
d="M20 1v-24h-58v-78h135v102h-77z" />
    <glyph glyph-name="FL0F0Ah" unicode="&#xb9;" horiz-adv-x="145" 
d="M50 587h75v169h-105v-71h30v-98zM50 400h75v157h-75v-157z" />
    <glyph glyph-name="FL00BEh" unicode="&#xba;" horiz-adv-x="203" 
d="M20 690v-103h76v92q0 6 5 6q7 0 7 -6v-92h75v103q0 23 -5 36t-15.5 20t-25.5 8.5t-35 1.5t-35 -1.5t-25.5 -8.5t-16 -20t-5.5 -36zM102 470q-6 0 -6 6v81h-76v-92q0 -23 5.5 -36t16 -19.5t25.5 -8t35 -1.5t35 1.5t25.5 8t15.5 19.5t5 36v92h-75v-81q0 -6 -6 -6z" />
    <glyph glyph-name="FL00BBh" unicode="&#xbb;" horiz-adv-x="284" 
d="M20 252l112 44v183l-112 44v-117l47 -19l-47 -18v-117zM152 252l112 44v183l-112 44v-117l47 -19l-47 -18v-117z" />
    <glyph glyph-name="FL0FCBh" unicode="&#xbc;" horiz-adv-x="470" 
d="M174 0v208q0 12 1.5 23t11.5 29q38 38 80.5 73t77.5 75q7 8 8.5 25.5t1.5 40.5v83h-117v-59q0 -13 -3.5 -27t-8.5 -18q-20 -18 -42.5 -39.5t-44 -42.5t-40 -41t-29.5 -35q-13 -16 -13 -83v-212h117zM363 321h-76v-226q0 -23 5 -36.5t14.5 -20t24 -8t34.5 -1.5h11v-64h74
v356h-75v-221h-8q-4 0 -4 6v215zM238 587h117v125h-117v-125zM50 587h75v160h-105v-71h30v-89zM50 391h75v166h-75v-166z" />
    <glyph glyph-name="FL0FA2h" unicode="&#xbd;" horiz-adv-x="442" 
d="M174 0v208q0 12 1.5 23t11.5 29q38 38 80.5 73t77.5 75q7 8 8.5 25.5t1.5 40.5v83h-117v-59q0 -13 -3.5 -27t-8.5 -18q-20 -18 -42.5 -39.5t-44 -42.5t-40 -41t-29.5 -35q-13 -16 -13 -83v-212h117zM335 76q0 6 0.5 16t3.5 18v-2q9 9 18.5 14.5t17.5 9.5h-1q12 7 23.5 15
t19.5 20q4 8 4.5 16.5t0.5 20.5v51q0 23 -5 36t-15 20t-25 8.5t-35 1.5t-35 -1.5t-26 -8.5t-16.5 -20t-5.5 -36v-52h76v41q0 6 5 6q7 0 7 -6v-28q0 -5 -1 -11.5t-3 -8.5h1q-11 -8 -23.5 -14.5t-24.5 -14t-21 -17t-12 -22.5q-3 -5 -3.5 -20t-0.5 -30v-113h163v136h-74v-66
h-13v41zM238 587h117v125h-117v-125zM50 587h75v160h-105v-71h30v-89zM50 391h75v166h-75v-166z" />
    <glyph glyph-name="FL00CCh" unicode="&#xbe;" horiz-adv-x="455" 
d="M42 0h117v208q0 12 1.5 23t11.5 29q38 38 80.5 73t77.5 75q7 8 8.5 25.5t1.5 40.5v83h-117v-59q0 -13 -3.5 -27t-8.5 -18q-20 -18 -42.5 -39.5t-44 -42.5t-40 -41t-29.5 -35q-13 -16 -13 -83v-212zM348 106v215h-76v-226q0 -23 5 -36.5t14.5 -20t24 -8t34.5 -1.5h11v-64
h74v356h-75v-221h-8q-4 0 -4 6zM138 632v49q0 23 -5 36t-15.5 20t-25.5 8.5t-34 1.5h-38v-71h38q5 0 5 -6v-45q0 -5 -3 -5h-40v-33h103q7 7 11 17.5t4 27.5zM63 543v-76q0 -6 -5 -6h-38v-70h38q19 0 34 1.5t25.5 8t15.5 19.5t5 36v75q0 14 -3 26h-115v-8h38q5 0 5 -6z
M340 712h-117v-125h117v125z" />
    <glyph glyph-name="FL00BFh" unicode="&#xbf;" 
d="M307 528h-138v-35q0 -12 -1.5 -31.5t-11.5 -37.5q-19 -19 -35 -32t-31 -25t-29 -26.5t-29 -36.5q-8 -11 -10 -31t-2 -43v-105q0 -44 10 -68.5t29.5 -37.5t49.5 -16t71 -3q40 0 69.5 3t49.5 16t30 37.5t10 68.5v106h-138v-84q0 -21 -22 -22q-21 1 -21 22v59q0 13 3.5 23.5
t8.5 14.5q24 17 45 36.5t38 38.5t28.5 37t16.5 32q4 10 6.5 39.5t2.5 61.5v39zM169 712v-125h138v125h-138z" />
    <glyph glyph-name="FL00C0h" unicode="&#xc0;" 
d="M158 258v299h-138v-557h138v133h43v-133h138v557h-138v-299h-43zM20 587h160h3h156q0 44 -10 69t-30 37.5t-49.5 15.5t-69.5 3t-70 -3t-50 -15.5t-30 -37.5t-10 -69zM244 749l-37 112h-128l49 -112h116z" />
    <glyph glyph-name="FL00C1h" unicode="&#xc1;" 
d="M158 258v299h-138v-557h138v133h43v-133h138v557h-138v-299h-43zM20 587h160h3h156q0 44 -10 69t-30 37.5t-49.5 15.5t-69.5 3t-70 -3t-50 -15.5t-30 -37.5t-10 -69zM148 861l-37 -112h116l49 112h-128z" />
    <glyph glyph-name="FL00C2h" unicode="&#xc2;" 
d="M158 258v299h-138v-557h138v133h43v-133h138v557h-138v-299h-43zM20 587h156h4h3h156q0 44 -10 69t-30 37.5t-49.5 15.5t-69.5 3t-70 -3t-50 -15.5t-30 -37.5t-10 -69zM44 749h117l18 48l19 -48h117l-44 112h-183z" />
    <glyph glyph-name="FL00C3h" unicode="&#xc3;" 
d="M158 258v299h-138v-557h138v133h43v-133h138v557h-138v-299h-43zM20 587h160h3h156q0 44 -10 69t-30 37.5t-49.5 15.5t-69.5 3t-70 -3t-50 -15.5t-30 -37.5t-10 -69zM277 749l44 112h-68l-18 -48l-19 48h-134l-44 -112h68l18 48l19 -48h134z" />
    <glyph glyph-name="FL00C4h" unicode="&#xc4;" 
d="M158 258v299h-138v-557h138v133h43v-133h138v557h-138v-299h-43zM20 587h156h4h3h156q0 44 -10 69t-30 37.5t-49.5 15.5t-69.5 3t-70 -3t-50 -15.5t-30 -37.5t-10 -69zM316 749v112h-123v-112h123zM166 749v112h-123v-112h123z" />
    <glyph glyph-name="FL00C5h" unicode="&#xc5;" 
d="M20 0h138v133h43v-133h138v557h-138v-299h-43v299h-138v-557zM20 587h319q0 44 -10 69t-30 37.5t-49.5 15.5t-69.5 3t-70 -3t-50 -15.5t-30 -37.5t-10 -69zM241 861h-123v-112h123v112zM197 792h-35v26h35v-26z" />
    <glyph glyph-name="FL00C6h" unicode="&#xc6;" horiz-adv-x="451" 
d="M339 528v29h-138v-299h-43v299h-138v-557h138v133h43v-133h230v125h-92v278h92v125h-92zM431 712h-251q-40 0 -70 -3t-50 -15.5t-30 -37.5t-10 -69h156h4h3h248v125z" />
    <glyph glyph-name="FL00C7h" unicode="&#xc7;" 
d="M158 147v410h-138v-432q0 -41 9 -65.5t26.5 -37.5t44 -17.5t61.5 -4.5v-23h-58v-78h135v103q25 2 44 8.5t31.5 20t19 36.5t6.5 58v178h-138v-156q0 -22 -21 -22q-22 0 -22 22zM181 587h158q0 43 -10 68t-30 38t-49.5 16t-69.5 3q-41 0 -71 -3t-49.5 -16t-29.5 -38
t-10 -68h159h2zM339 409v148h-138v-148h138z" />
    <glyph glyph-name="FL00C8h" unicode="&#xc8;" 
d="M339 278h-138v-153h-43v193h92v125h-92v114h-138v-557h319v278zM20 587h319v125h-319v-125zM207 861h-128l49 -112h116zM339 482v75h-138v-75h138z" />
    <glyph glyph-name="FL00C9h" unicode="&#xc9;" 
d="M339 278h-138v-153h-43v193h92v125h-92v114h-138v-557h319v278zM20 587h319v125h-319v-125zM111 749h116l49 112h-128zM339 482v75h-138v-75h138z" />
    <glyph glyph-name="FL00CAh" unicode="&#xca;" 
d="M339 278h-138v-153h-43v193h92v125h-92v114h-138v-557h319v278zM20 587h319v125h-319v-125zM161 749l18 48l19 -48h117l-44 112h-183l-44 -112h117zM339 482v75h-138v-75h138z" />
    <glyph glyph-name="FL00CBh" unicode="&#xcb;" 
d="M339 278h-138v-153h-43v193h92v125h-92v114h-138v-557h319v278zM20 587h319v125h-319v-125zM166 861h-123v-112h123v112zM316 861h-123v-112h123v112zM339 482v75h-138v-75h138z" />
    <glyph glyph-name="FL06D2h" unicode="&#xcc;" horiz-adv-x="286" 
d="M20 125v-125h246v125h-54v432h-138v-432h-54zM266 587v125h-246v-125h246zM207 749l-37 112h-128l49 -112h116z" />
    <glyph glyph-name="FL00CDh" unicode="&#xcd;" horiz-adv-x="288" 
d="M267 0v125h-54v432h-138v-432h-54v-125h246zM267 587v125h-246v-125h246zM117 861l-37 -112h116l49 112h-128z" />
    <glyph glyph-name="FL00CEh" unicode="&#xce;" horiz-adv-x="288" 
d="M21 125v-125h246v125h-54v432h-138v-432h-54zM267 712h-246v-125h246v125zM8 749h117l18 48l19 -48h117l-44 112h-183z" />
    <glyph glyph-name="FL00CFh" unicode="&#xcf;" horiz-adv-x="288" 
d="M21 125v-125h246v125h-54v432h-138v-432h-54zM267 712h-246v-125h246v125zM280 749v112h-123v-112h123zM130 749v112h-123v-112h123z" />
    <glyph glyph-name="FL0399h" unicode="&#xd0;" horiz-adv-x="401" 
d="M62 0h160q40 0 69.5 3t49.5 15.5t30 37.5t10 69v432h-138v-410q0 -22 -21 -22h-22v432h-138v-107h-42v-125h42v-325zM62 587h159h2h158q0 43 -10 68t-30 38t-49.5 16t-69.5 3h-160v-125z" />
    <glyph glyph-name="FL00D1h" unicode="&#xd1;" horiz-adv-x="381" 
d="M158 297l60 -297h143v557h-138v-141l-29 141h-174v-557h138v297zM288 749l44 112h-68l-18 -48l-19 48h-134l-44 -112h68l18 48l19 -48h134zM20 712v-125h168l-25 125h-143zM361 712h-138v-125h138v125z" />
    <glyph glyph-name="FL00D2h" unicode="&#xd2;" 
d="M180 125q-22 0 -22 22v410h-138v-432q0 -44 10 -69t30 -37.5t50 -15.5t70 -3t69.5 3t49.5 15.5t30 37.5t10 69v432h-138v-410q0 -22 -21 -22zM20 587h319q0 43 -10 68t-30 38t-49.5 16t-69.5 3q-41 0 -71 -3t-49.5 -16t-29.5 -38t-10 -68zM244 749l-37 112h-128l49 -112
h116z" />
    <glyph glyph-name="FL00D3h" unicode="&#xd3;" 
d="M180 125q-22 0 -22 22v410h-138v-432q0 -44 10 -69t30 -37.5t50 -15.5t70 -3t69.5 3t49.5 15.5t30 37.5t10 69v432h-138v-410q0 -22 -21 -22zM20 587h159h2h158q0 43 -10 68t-30 38t-49.5 16t-69.5 3q-41 0 -71 -3t-49.5 -16t-29.5 -38t-10 -68zM148 861l-37 -112h116
l49 112h-128z" />
    <glyph glyph-name="FL00D4h" unicode="&#xd4;" 
d="M180 125q-22 0 -22 22v410h-138v-432q0 -44 10 -69t30 -37.5t50 -15.5t70 -3t69.5 3t49.5 15.5t30 37.5t10 69v432h-138v-410q0 -22 -21 -22zM20 587h157h2h2h158q0 43 -10 68t-30 38t-49.5 16t-69.5 3q-41 0 -71 -3t-49.5 -16t-29.5 -38t-10 -68zM44 749h117l18 48
l19 -48h117l-44 112h-183z" />
    <glyph glyph-name="FL00D5h" unicode="&#xd5;" 
d="M180 125q-22 0 -22 22v410h-138v-432q0 -44 10 -69t30 -37.5t50 -15.5t70 -3t69.5 3t49.5 15.5t30 37.5t10 69v432h-138v-410q0 -22 -21 -22zM20 587h319q0 43 -10 68t-30 38t-49.5 16t-69.5 3q-41 0 -71 -3t-49.5 -16t-29.5 -38t-10 -68zM277 749l44 112h-68l-18 -48
l-19 48h-134l-44 -112h68l18 48l19 -48h134z" />
    <glyph glyph-name="FL00D6h" unicode="&#xd6;" 
d="M180 125q-22 0 -22 22v410h-138v-432q0 -44 10 -69t30 -37.5t50 -15.5t70 -3t69.5 3t49.5 15.5t30 37.5t10 69v432h-138v-410q0 -22 -21 -22zM20 587h159h2h158q0 43 -10 68t-30 38t-49.5 16t-69.5 3q-41 0 -71 -3t-49.5 -16t-29.5 -38t-10 -68zM316 749v112h-123v-112
h123zM166 749v112h-123v-112h123z" />
    <glyph glyph-name="FL00D7h" unicode="&#xd7;" horiz-adv-x="286" 
d="M266 353l-35 35l34 34l-88 88l-34 -34l-34 34l-88 -88l34 -34l-35 -35l88 -88l35 34l35 -34z" />
    <glyph glyph-name="FL00D8h" unicode="&#xd8;" 
d="M20 125q0 -44 10 -69t30 -37.5t50 -15.5t70 -3t69.5 3t49.5 15.5t30 37.5t10 69v432h-138v-91q-1 -11 -4 -20.5t-8 -12.5l-31 -26v150h-138v-432zM20 587h157h2h1h159q0 43 -10 68t-30 38t-49.5 16t-69.5 3q-41 0 -71 -3t-49.5 -16t-29.5 -38t-10 -68zM201 147
q0 -21 -21 -22q-20 1 -22 19v102q1 11 4 20.5t8 12.5l31 26v-158z" />
    <glyph glyph-name="FL00D9h" unicode="&#xd9;" 
d="M180 0q40 0 69.5 3t49.5 15.5t30 37.5t10 69v432h-138v-410q0 -22 -21 -22q-22 0 -22 22v410h-138v-432q0 -44 10 -69t30 -37.5t50 -15.5t70 -3zM339 712h-138v-125h138v125zM20 712v-125h138v125h-138zM244 749l-37 112h-128l49 -112h116z" />
    <glyph glyph-name="FL00DAh" unicode="&#xda;" 
d="M339 125v432h-138v-410q0 -22 -22 -22q-21 0 -21 22v410h-138v-432q0 -44 10 -69t30 -37.5t49.5 -15.5t69.5 -3t70 3t50 15.5t30 37.5t10 69zM339 712h-138v-125h138v125zM158 712h-138v-125h138v125zM148 861l-37 -112h116l49 112h-128z" />
    <glyph glyph-name="FL00DBh" unicode="&#xdb;" 
d="M339 125v432h-138v-410q0 -22 -22 -22q-21 0 -21 22v410h-138v-432q0 -44 10 -69t30 -37.5t49.5 -15.5t69.5 -3t70 3t50 15.5t30 37.5t10 69zM44 749h117l18 48l19 -48h117l-44 112h-183zM339 712h-138v-125h138v125zM158 712h-138v-125h138v125z" />
    <glyph glyph-name="FL00DCh" unicode="&#xdc;" 
d="M180 0q40 0 69.5 3t49.5 15.5t30 37.5t10 69v432h-138v-410q0 -22 -21 -22q-22 0 -22 22v410h-138v-432q0 -44 10 -69t30 -37.5t50 -15.5t70 -3zM20 712v-125h138v125h-138zM339 712h-138v-125h138v125zM316 749v112h-123v-112h123zM166 749v112h-123v-112h123z" />
    <glyph glyph-name="FL00DDh" unicode="&#xdd;" 
d="M20 258q0 -66 22.5 -91.5t67.5 -30.5v-136h138v136q22 3 39.5 10t28.5 20.5t17 35.5t6 56v299h-138v-277q0 -22 -21 -22q-22 0 -22 22v277h-138v-299zM339 712h-138v-125h138v125zM158 712h-138v-125h138v125zM148 861l-37 -112h116l49 112h-128z" />
    <glyph glyph-name="FL00DEh" unicode="&#xde;" 
d="M20 0h138v72h22q40 0 69.5 3t49.5 15.5t30 37.5t10 69v318q0 24 -3 42h-316v-557zM20 587h307q-16 36 -52.5 44.5t-94.5 8.5h-22v72h-138v-125zM201 219q0 -22 -21 -22h-22v318h21q22 -1 22 -22v-274z" />
    <glyph glyph-name="FL0719h" unicode="&#xdf;" 
d="M339 487v70h-138v-85q0 -21 -18 -22h-3v-125q21 -3 21 -22v-156q0 -22 -21 -22v-125h8q37 0 65.5 3.5t47.5 16t28.5 37.5t9.5 68v154q0 48 -12.5 72.5t-35.5 35.5q22 11 35 34t13 66zM158 0v557h-138v-557h138zM20 587h157h2h160q0 43 -10 68t-29.5 37.5t-49.5 16
t-69 3.5q-41 0 -71 -3t-50 -16t-30 -38t-10 -68z" />
    <glyph glyph-name="FL00E0h" unicode="&#xe0;" 
d="M158 258v299h-138v-557h138v133h43v-133h138v557h-138v-299h-43zM20 587h160h3h156q0 44 -10 69t-30 37.5t-49.5 15.5t-69.5 3t-70 -3t-50 -15.5t-30 -37.5t-10 -69zM244 749l-37 112h-128l49 -112h116z" />
    <glyph glyph-name="FL00E1h" unicode="&#xe1;" 
d="M158 258v299h-138v-557h138v133h43v-133h138v557h-138v-299h-43zM20 587h160h3h156q0 44 -10 69t-30 37.5t-49.5 15.5t-69.5 3t-70 -3t-50 -15.5t-30 -37.5t-10 -69zM148 861l-37 -112h116l49 112h-128z" />
    <glyph glyph-name="FL00E2h" unicode="&#xe2;" 
d="M158 258v299h-138v-557h138v133h43v-133h138v557h-138v-299h-43zM20 587h156h4h3h156q0 44 -10 69t-30 37.5t-49.5 15.5t-69.5 3t-70 -3t-50 -15.5t-30 -37.5t-10 -69zM44 749h117l18 48l19 -48h117l-44 112h-183z" />
    <glyph glyph-name="FL00E3h" unicode="&#xe3;" 
d="M158 258v299h-138v-557h138v133h43v-133h138v557h-138v-299h-43zM20 587h160h3h156q0 44 -10 69t-30 37.5t-49.5 15.5t-69.5 3t-70 -3t-50 -15.5t-30 -37.5t-10 -69zM277 749l44 112h-68l-18 -48l-19 48h-134l-44 -112h68l18 48l19 -48h134z" />
    <glyph glyph-name="FL00E4h" unicode="&#xe4;" 
d="M158 258v299h-138v-557h138v133h43v-133h138v557h-138v-299h-43zM20 587h156h4h3h156q0 44 -10 69t-30 37.5t-49.5 15.5t-69.5 3t-70 -3t-50 -15.5t-30 -37.5t-10 -69zM316 749v112h-123v-112h123zM166 749v112h-123v-112h123z" />
    <glyph glyph-name="FL00E5h" unicode="&#xe5;" 
d="M20 0h138v133h43v-133h138v557h-138v-299h-43v299h-138v-557zM20 587h319q0 44 -10 69t-30 37.5t-49.5 15.5t-69.5 3t-70 -3t-50 -15.5t-30 -37.5t-10 -69zM241 861h-123v-112h123v112zM197 792h-35v26h35v-26z" />
    <glyph glyph-name="FL00E6h" unicode="&#xe6;" horiz-adv-x="451" 
d="M339 528v29h-138v-299h-43v299h-138v-557h138v133h43v-133h230v125h-92v278h92v125h-92zM431 712h-251q-40 0 -70 -3t-50 -15.5t-30 -37.5t-10 -69h156h4h3h248v125z" />
    <glyph glyph-name="FL0A52h" unicode="&#xe7;" horiz-adv-x="290" 
d="M158 147v410h-138v-432q0 -37 7 -60.5t21 -37t35 -19.5t50 -7v-24h-58v-78h135v101h60v125h-90q-22 0 -22 22zM270 712h-90q-41 0 -71 -3t-49.5 -16t-29.5 -38t-10 -68h157h2h91v125z" />
    <glyph glyph-name="FL00E8h" unicode="&#xe8;" horiz-adv-x="270" 
d="M250 0v125h-92v278h92v125h-92v29h-138v-557h230zM250 587v125h-230v-125h230zM199 749l-37 112h-128l49 -112h116z" />
    <glyph glyph-name="FL0820h" unicode="&#xe9;" horiz-adv-x="270" 
d="M250 0v125h-92v278h92v125h-92v29h-138v-557h230zM250 587v125h-230v-125h230zM107 861l-37 -112h116l49 112h-128z" />
    <glyph glyph-name="FL00EAh" unicode="&#xea;" horiz-adv-x="270" 
d="M250 0v125h-92v278h92v125h-92v29h-138v-557h230zM250 587v125h-230v-125h230zM0 749h117l18 48l19 -48h117l-44 112h-183z" />
    <glyph glyph-name="FL00EBh" unicode="&#xeb;" horiz-adv-x="270" 
d="M250 0v125h-92v278h92v125h-92v29h-138v-557h230zM250 587v125h-230v-125h230zM272 749v112h-123v-112h123zM122 749v112h-123v-112h123z" />
    <glyph glyph-name="FL00ECh" unicode="&#xec;" horiz-adv-x="178" 
d="M20 0h138v557h-138v-557zM158 712h-138v-125h138v125zM157 749l-37 112h-128l49 -112h116z" />
    <glyph glyph-name="FL0846h" unicode="&#xed;" horiz-adv-x="178" 
d="M20 0h138v557h-138v-557zM158 712h-138v-125h138v125zM57 861l-37 -112h116l49 112h-128z" />
    <glyph glyph-name="FL00EEh" unicode="&#xee;" horiz-adv-x="178" 
d="M20 0h138v557h-138v-557zM-46 749h117l18 48l19 -48h117l-44 112h-183zM158 712h-138v-125h138v125z" />
    <glyph glyph-name="FL00EFh" unicode="&#xef;" horiz-adv-x="178" 
d="M20 0h138v557h-138v-557zM158 712h-138v-125h138v125zM226 749v112h-123v-112h123zM76 749v112h-123v-112h123z" />
    <glyph glyph-name="FL00F0h" unicode="&#xf0;" 
d="M339 125v432h-138v-156h-21q-40 0 -70 -3t-50 -15.5t-30 -37.5t-10 -69v-151q0 -44 10 -69t30 -37.5t49.5 -15.5t69.5 -3t70 3t50 15.5t30 37.5t10 69zM20 587h157h3h1h158q0 65 -22.5 90.5t-68.5 31.5v92h-138v-92q-45 -6 -67.5 -31.5t-22.5 -90.5zM158 507v50h-138v-50
h138zM177 276h24v-129q0 -22 -22 -22q-20 0 -21 18v114q1 18 19 19z" />
    <glyph glyph-name="FL00F1h" unicode="&#xf1;" horiz-adv-x="381" 
d="M158 297l60 -297h143v557h-138v-141l-29 141h-174v-557h138v297zM288 749l44 112h-68l-18 -48l-19 48h-134l-44 -112h68l18 48l19 -48h134zM20 712v-125h168l-25 125h-143zM361 712h-138v-125h138v125z" />
    <glyph glyph-name="FL00F2h" unicode="&#xf2;" 
d="M180 125q-22 0 -22 22v410h-138v-432q0 -44 10 -69t30 -37.5t50 -15.5t70 -3t69.5 3t49.5 15.5t30 37.5t10 69v432h-138v-410q0 -22 -21 -22zM20 587h319q0 43 -10 68t-30 38t-49.5 16t-69.5 3q-41 0 -71 -3t-49.5 -16t-29.5 -38t-10 -68zM244 749l-37 112h-128l49 -112
h116z" />
    <glyph glyph-name="FL00F3h" unicode="&#xf3;" 
d="M180 125q-22 0 -22 22v410h-138v-432q0 -44 10 -69t30 -37.5t50 -15.5t70 -3t69.5 3t49.5 15.5t30 37.5t10 69v432h-138v-410q0 -22 -21 -22zM20 587h159h2h158q0 43 -10 68t-30 38t-49.5 16t-69.5 3q-41 0 -71 -3t-49.5 -16t-29.5 -38t-10 -68zM148 861l-37 -112h116
l49 112h-128z" />
    <glyph glyph-name="FL00F4h" unicode="&#xf4;" 
d="M180 125q-22 0 -22 22v410h-138v-432q0 -44 10 -69t30 -37.5t50 -15.5t70 -3t69.5 3t49.5 15.5t30 37.5t10 69v432h-138v-410q0 -22 -21 -22zM20 587h157h2h2h158q0 43 -10 68t-30 38t-49.5 16t-69.5 3q-41 0 -71 -3t-49.5 -16t-29.5 -38t-10 -68zM44 749h117l18 48
l19 -48h117l-44 112h-183z" />
    <glyph glyph-name="FL01E1h" unicode="&#xf5;" 
d="M180 125q-22 0 -22 22v410h-138v-432q0 -44 10 -69t30 -37.5t50 -15.5t70 -3t69.5 3t49.5 15.5t30 37.5t10 69v432h-138v-410q0 -22 -21 -22zM20 587h319q0 43 -10 68t-30 38t-49.5 16t-69.5 3q-41 0 -71 -3t-49.5 -16t-29.5 -38t-10 -68zM277 749l44 112h-68l-18 -48
l-19 48h-134l-44 -112h68l18 48l19 -48h134z" />
    <glyph glyph-name="FL00F6h" unicode="&#xf6;" 
d="M180 125q-22 0 -22 22v410h-138v-432q0 -44 10 -69t30 -37.5t50 -15.5t70 -3t69.5 3t49.5 15.5t30 37.5t10 69v432h-138v-410q0 -22 -21 -22zM20 587h159h2h158q0 43 -10 68t-30 38t-49.5 16t-69.5 3q-41 0 -71 -3t-49.5 -16t-29.5 -38t-10 -68zM316 749v112h-123v-112
h123zM166 749v112h-123v-112h123z" />
    <glyph glyph-name="FL091Bh" unicode="&#xf7;" horiz-adv-x="296" 
d="M20 325h256v125h-256v-125zM205 186v109h-114v-109h114zM205 479v78h-114v-78h114zM205 588h-114v-1h114v1z" />
    <glyph glyph-name="FL00F8h" unicode="&#xf8;" 
d="M20 125q0 -44 10 -69t30 -37.5t50 -15.5t70 -3t69.5 3t49.5 15.5t30 37.5t10 69v432h-138v-91q-1 -11 -4 -20.5t-8 -12.5l-31 -26v150h-138v-432zM20 587h157h2h1h159q0 43 -10 68t-30 38t-49.5 16t-69.5 3q-41 0 -71 -3t-49.5 -16t-29.5 -38t-10 -68zM201 147
q0 -21 -21 -22q-20 1 -22 19v102q1 11 4 20.5t8 12.5l31 26v-158z" />
    <glyph glyph-name="FL00F9h" unicode="&#xf9;" 
d="M180 0q40 0 69.5 3t49.5 15.5t30 37.5t10 69v432h-138v-410q0 -22 -21 -22q-22 0 -22 22v410h-138v-432q0 -44 10 -69t30 -37.5t50 -15.5t70 -3zM339 712h-138v-125h138v125zM20 712v-125h138v125h-138zM244 749l-37 112h-128l49 -112h116z" />
    <glyph glyph-name="FL00FAh" unicode="&#xfa;" 
d="M339 125v432h-138v-410q0 -22 -22 -22q-21 0 -21 22v410h-138v-432q0 -44 10 -69t30 -37.5t49.5 -15.5t69.5 -3t70 3t50 15.5t30 37.5t10 69zM339 712h-138v-125h138v125zM158 712h-138v-125h138v125zM148 861l-37 -112h116l49 112h-128z" />
    <glyph glyph-name="FL003Eh" unicode="&#xfb;" 
d="M339 125v432h-138v-410q0 -22 -22 -22q-21 0 -21 22v410h-138v-432q0 -44 10 -69t30 -37.5t49.5 -15.5t69.5 -3t70 3t50 15.5t30 37.5t10 69zM44 749h117l18 48l19 -48h117l-44 112h-183zM339 712h-138v-125h138v125zM158 712h-138v-125h138v125z" />
    <glyph glyph-name="FL00FCh" unicode="&#xfc;" 
d="M180 0q40 0 69.5 3t49.5 15.5t30 37.5t10 69v432h-138v-410q0 -22 -21 -22q-22 0 -22 22v410h-138v-432q0 -44 10 -69t30 -37.5t50 -15.5t70 -3zM20 712v-125h138v125h-138zM339 712h-138v-125h138v125zM316 749v112h-123v-112h123zM166 749v112h-123v-112h123z" />
    <glyph glyph-name="FL00FDh" unicode="&#xfd;" 
d="M20 258q0 -66 22.5 -91.5t67.5 -30.5v-136h138v136q22 3 39.5 10t28.5 20.5t17 35.5t6 56v299h-138v-277q0 -22 -21 -22q-22 0 -22 22v277h-138v-299zM339 712h-138v-125h138v125zM158 712h-138v-125h138v125zM148 861l-37 -112h116l49 112h-128z" />
    <glyph glyph-name="FL00FEh" unicode="&#xfe;" 
d="M20 0h138v72h22q40 0 69.5 3t49.5 15.5t30 37.5t10 69v318q0 24 -3 42h-316v-557zM20 587h307q-16 36 -52.5 44.5t-94.5 8.5h-22v72h-138v-125zM201 219q0 -22 -21 -22h-22v318h21q22 -1 22 -22v-274z" />
    <glyph glyph-name="FL00FFh" unicode="&#xff;" 
d="M20 258q0 -66 22.5 -91.5t67.5 -30.5v-136h138v136q22 3 39.5 10t28.5 20.5t17 35.5t6 56v299h-138v-277q0 -22 -21 -22q-22 0 -22 22v277h-138v-299zM339 712h-138v-125h138v125zM158 712h-138v-125h138v125zM166 749v112h-123v-112h123zM316 749v112h-123v-112h123z
" />
  </font>
</defs>
</svg>
