<svg width="159" height="80" viewBox="0 0 159 80" fill="none" xmlns="http://www.w3.org/2000/svg">
<path fill-rule="evenodd" clip-rule="evenodd" d="M86.6753 63.5656C84.6623 60.8091 74.3377 60.8091 72.3247 63.5656C65.0495 73.5278 53.2806 80 40 80C17.9086 80 0 62.0914 0 40C0 17.9086 17.9086 0 40 0C53.2806 0 65.0495 6.47217 72.3247 16.4344C74.3377 19.1909 84.6623 19.1909 86.6753 16.4344C93.9505 6.47217 105.719 0 119 0C141.091 0 159 17.9086 159 40C159 62.0914 141.091 80 119 80C105.719 80 93.9505 73.5278 86.6753 63.5656Z" fill="#050306"/>
</svg>
