<svg width="15" height="14" viewBox="0 0 15 14" fill="none" xmlns="http://www.w3.org/2000/svg">
<g clip-path="url(#clip0_3342_1886)">
<path fill-rule="evenodd" clip-rule="evenodd" d="M7.50003 0.00233154L6.50002 0.00202067L6.54444 4.42953L4.8446 0.323897L3.92117 0.698199L5.66505 4.91019L2.42084 1.69736L1.72082 2.40422L4.83025 5.48356L0.823203 3.73934L0.432029 4.65552L4.67196 6.50112L0.0652096 6.49969L0.075242 7.49966L4.68198 7.50109L0.479069 9.34405L0.888628 10.2605L4.8607 8.51875L1.81304 11.5962L2.52724 12.3034L5.70701 9.09264L4.04763 13.3036L4.97858 13.6784L6.59605 9.57386L6.64047 14.0014L7.64048 14.0017L7.59606 9.57417L9.2959 13.6798L10.2193 13.3055L8.47548 9.0935L11.7197 12.3063L12.4196 11.5995L9.31022 8.52014L13.3173 10.2644L13.7084 9.34816L9.46857 7.50258L14.0753 7.50401L14.0653 6.50404L9.45847 6.50261L13.6614 4.65964L13.2519 3.7432L9.27977 5.48495L12.3274 2.40751L11.6133 1.70022L8.43352 4.91104L10.0928 0.700117L9.16192 0.325239L7.54445 4.42984L7.50003 0.00233154Z" fill="white"/>
</g>
<defs>
<clipPath id="clip0_3342_1886">
<rect width="14" height="14" fill="white" transform="matrix(1 0.000310872 0.0100323 0.999953 0 0)"/>
</clipPath>
</defs>
</svg>
