<svg width="36" height="36" viewBox="0 0 36 36" fill="none" xmlns="http://www.w3.org/2000/svg">
<path d="M29.9396 13.4396C28.9346 12.3296 27.4196 11.6846 25.3196 11.4596V10.3196C25.3196 8.26461 24.4496 6.28461 22.9196 4.90461C21.3746 3.49461 19.3646 2.83461 17.2796 3.02961C13.6946 3.37461 10.6796 6.83961 10.6796 10.5896V11.4596C8.57962 11.6846 7.06462 12.3296 6.05962 13.4396C4.60462 15.0596 4.64962 17.2196 4.81462 18.7196L5.86462 27.0746C6.17962 29.9996 7.36462 32.9996 13.8146 32.9996H22.1846C28.6346 32.9996 29.8196 29.9996 30.1346 27.0896L31.1846 18.7046C31.3496 17.2196 31.3796 15.0596 29.9396 13.4396ZM17.4896 5.11461C18.9896 4.97961 20.4146 5.44461 21.5246 6.44961C22.6196 7.43961 23.2346 8.84961 23.2346 10.3196V11.3696H12.7646V10.5896C12.7646 7.91961 14.9696 5.35461 17.4896 5.11461ZM12.6296 19.7246H12.6146C11.7896 19.7246 11.1146 19.0496 11.1146 18.2246C11.1146 17.3996 11.7896 16.7246 12.6146 16.7246C13.4546 16.7246 14.1296 17.3996 14.1296 18.2246C14.1296 19.0496 13.4546 19.7246 12.6296 19.7246ZM23.1296 19.7246H23.1146C22.2896 19.7246 21.6146 19.0496 21.6146 18.2246C21.6146 17.3996 22.2896 16.7246 23.1146 16.7246C23.9546 16.7246 24.6296 17.3996 24.6296 18.2246C24.6296 19.0496 23.9546 19.7246 23.1296 19.7246Z" fill="white"/>
</svg>
